%TF.GenerationSoftware,KiCad,Pcbnew,8.0.5-8.0.5-0~ubuntu24.04.1*%
%TF.CreationDate,2025-02-20T13:25:03+01:00*%
%TF.ProjectId,dev_board_M0,6465765f-626f-4617-9264-5f4d302e6b69,rev?*%
%TF.SameCoordinates,Original*%
%TF.FileFunction,Soldermask,Bot*%
%TF.FilePolarity,Negative*%
%FSLAX46Y46*%
G04 Gerber Fmt 4.6, Leading zero omitted, Abs format (unit mm)*
G04 Created by KiCad (PCBNEW 8.0.5-8.0.5-0~ubuntu24.04.1) date 2025-02-20 13:25:03*
%MOMM*%
%LPD*%
G01*
G04 APERTURE LIST*
G04 Aperture macros list*
%AMRoundRect*
0 Rectangle with rounded corners*
0 $1 Rounding radius*
0 $2 $3 $4 $5 $6 $7 $8 $9 X,Y pos of 4 corners*
0 Add a 4 corners polygon primitive as box body*
4,1,4,$2,$3,$4,$5,$6,$7,$8,$9,$2,$3,0*
0 Add four circle primitives for the rounded corners*
1,1,$1+$1,$2,$3*
1,1,$1+$1,$4,$5*
1,1,$1+$1,$6,$7*
1,1,$1+$1,$8,$9*
0 Add four rect primitives between the rounded corners*
20,1,$1+$1,$2,$3,$4,$5,0*
20,1,$1+$1,$4,$5,$6,$7,0*
20,1,$1+$1,$6,$7,$8,$9,0*
20,1,$1+$1,$8,$9,$2,$3,0*%
G04 Aperture macros list end*
%ADD10C,0.650000*%
%ADD11R,1.700000X1.700000*%
%ADD12O,1.700000X1.700000*%
%ADD13C,2.000000*%
%ADD14RoundRect,0.500000X0.500000X1.400000X-0.500000X1.400000X-0.500000X-1.400000X0.500000X-1.400000X0*%
%ADD15RoundRect,0.375000X0.625000X0.375000X-0.625000X0.375000X-0.625000X-0.375000X0.625000X-0.375000X0*%
%ADD16RoundRect,0.250000X1.050000X0.550000X-1.050000X0.550000X-1.050000X-0.550000X1.050000X-0.550000X0*%
G04 APERTURE END LIST*
D10*
%TO.C,J1*%
X141320000Y-74470000D03*
X141320000Y-80250000D03*
%TD*%
D11*
%TO.C,J6*%
X107500000Y-81830000D03*
D12*
X107500000Y-79290000D03*
X107500000Y-76750000D03*
%TD*%
D13*
%TO.C,SW1*%
X209310000Y-40250000D03*
X215810000Y-40250000D03*
X209310000Y-44750000D03*
X215810000Y-44750000D03*
%TD*%
D11*
%TO.C,J5*%
X136750000Y-92000000D03*
D12*
X139290000Y-92000000D03*
X141830000Y-92000000D03*
X144370000Y-92000000D03*
%TD*%
D14*
%TO.C,U4*%
X130800000Y-77000000D03*
D15*
X137100000Y-79300000D03*
X137100000Y-77000000D03*
X137100000Y-74700000D03*
%TD*%
D11*
%TO.C,J3*%
X109720000Y-92000000D03*
D12*
X112260000Y-92000000D03*
X114800000Y-92000000D03*
X117340000Y-92000000D03*
X119880000Y-92000000D03*
X122420000Y-92000000D03*
X124960000Y-92000000D03*
X127500000Y-92000000D03*
X130040000Y-92000000D03*
X132580000Y-92000000D03*
%TD*%
D16*
%TO.C,C12*%
X137350000Y-70500000D03*
X133750000Y-70500000D03*
%TD*%
%TO.C,C11*%
X137050000Y-83250000D03*
X133450000Y-83250000D03*
%TD*%
D12*
%TO.C,J4*%
X109800000Y-64000000D03*
X112340000Y-64000000D03*
X114880000Y-64000000D03*
X117420000Y-64000000D03*
X119960000Y-64000000D03*
X122500000Y-64000000D03*
X125040000Y-64000000D03*
X127580000Y-64000000D03*
X130120000Y-64000000D03*
D11*
X132660000Y-64000000D03*
%TD*%
%TO.C,J2*%
X144250000Y-64500000D03*
D12*
X141710000Y-64500000D03*
X139170000Y-64500000D03*
X136630000Y-64500000D03*
%TD*%
M02*
