M48
; DRILL file {KiCad 8.0.5-8.0.5-0~ubuntu24.04.1} date 2025-02-20T13:25:15+0100
; FORMAT={-:-/ absolute / metric / decimal}
; #@! TF.CreationDate,2025-02-20T13:25:15+01:00
; #@! TF.GenerationSoftware,Kicad,Pcbnew,8.0.5-8.0.5-0~ubuntu24.04.1
; #@! TF.FileFunction,Plated,1,2,PTH
FMAT,2
METRIC
; #@! TA.AperFunction,Plated,PTH,ViaDrill
T1C0.300
; #@! TA.AperFunction,Plated,PTH,ComponentDrill
T2C1.000
; #@! TA.AperFunction,Plated,PTH,ComponentDrill
T3C1.100
%
G90
G05
T1
X110.5Y-70.5
X111.753Y-81.503
X111.825Y-84.25
X113.75Y-79.5
X114.75Y-66.75
X115.5Y-68.5
X115.5Y-71.5
X115.75Y-66.75
X116.5Y-69.5
X116.5Y-71.5
X117.0Y-79.5
X117.5Y-71.5
X117.5Y-76.5
X117.5Y-77.5
X117.5Y-78.25
X118.0Y-81.25
X118.25Y-71.5
X118.25Y-77.5
X118.25Y-78.25
X118.25Y-79.0
X118.25Y-79.75
X118.25Y-84.5
X118.5Y-72.5
X118.75Y-80.75
X119.0Y-67.25
X119.0Y-77.5
X119.0Y-78.25
X119.0Y-90.0
X119.25Y-80.0
X119.75Y-66.75
X119.75Y-76.5
X120.5Y-72.0
X120.5Y-77.75
X120.5Y-80.0
X121.25Y-77.25
X121.259Y-71.747
X121.75Y-81.25
X122.0Y-72.25
X122.0Y-78.0
X122.0Y-84.75
X122.25Y-71.0
X123.25Y-82.25
X123.25Y-86.225
X123.25Y-87.25
X123.75Y-90.5
X124.0Y-72.0
X124.0Y-82.25
X124.0Y-83.25
X125.0Y-82.25
X125.0Y-83.25
X125.0Y-84.75
X125.141Y-76.25
X125.25Y-80.0
X125.46Y-74.71
X125.5Y-77.25
X125.5Y-79.0
X125.75Y-82.25
X125.75Y-83.25
X125.753Y-78.009
X126.0Y-84.5
X127.0Y-90.75
X127.75Y-78.0
X128.0Y-84.5
X128.75Y-78.5
X129.252Y-90.458
X129.266Y-76.266
X129.75Y-74.25
X130.5Y-81.5
X130.5Y-83.0
X131.25Y-86.25
X132.0Y-90.25
X133.0Y-86.5
X133.5Y-67.25
X134.5Y-77.25
X134.5Y-79.25
X137.05Y-80.0
X139.0Y-79.75
X139.25Y-82.75
X139.25Y-83.75
X139.36Y-75.106
T2
X107.5Y-76.75
X107.5Y-79.29
X107.5Y-81.83
X109.72Y-92.0
X109.8Y-64.0
X112.26Y-92.0
X112.34Y-64.0
X114.8Y-92.0
X114.88Y-64.0
X117.34Y-92.0
X117.42Y-64.0
X119.88Y-92.0
X119.96Y-64.0
X122.42Y-92.0
X122.5Y-64.0
X124.96Y-92.0
X125.04Y-64.0
X127.5Y-92.0
X127.58Y-64.0
X130.04Y-92.0
X130.12Y-64.0
X132.58Y-92.0
X132.66Y-64.0
X136.63Y-64.5
X136.75Y-92.0
X139.17Y-64.5
X139.29Y-92.0
X141.71Y-64.5
X141.83Y-92.0
X144.25Y-64.5
X144.37Y-92.0
T3
X209.31Y-40.25
X209.31Y-44.75
X215.81Y-40.25
X215.81Y-44.75
M30
