%TF.GenerationSoftware,KiCad,Pcbnew,8.0.5-8.0.5-0~ubuntu24.04.1*%
%TF.CreationDate,2025-02-20T13:25:03+01:00*%
%TF.ProjectId,dev_board_M0,6465765f-626f-4617-9264-5f4d302e6b69,rev?*%
%TF.SameCoordinates,Original*%
%TF.FileFunction,Soldermask,Top*%
%TF.FilePolarity,Negative*%
%FSLAX46Y46*%
G04 Gerber Fmt 4.6, Leading zero omitted, Abs format (unit mm)*
G04 Created by KiCad (PCBNEW 8.0.5-8.0.5-0~ubuntu24.04.1) date 2025-02-20 13:25:03*
%MOMM*%
%LPD*%
G01*
G04 APERTURE LIST*
G04 Aperture macros list*
%AMRoundRect*
0 Rectangle with rounded corners*
0 $1 Rounding radius*
0 $2 $3 $4 $5 $6 $7 $8 $9 X,Y pos of 4 corners*
0 Add a 4 corners polygon primitive as box body*
4,1,4,$2,$3,$4,$5,$6,$7,$8,$9,$2,$3,0*
0 Add four circle primitives for the rounded corners*
1,1,$1+$1,$2,$3*
1,1,$1+$1,$4,$5*
1,1,$1+$1,$6,$7*
1,1,$1+$1,$8,$9*
0 Add four rect primitives between the rounded corners*
20,1,$1+$1,$2,$3,$4,$5,0*
20,1,$1+$1,$4,$5,$6,$7,0*
20,1,$1+$1,$6,$7,$8,$9,0*
20,1,$1+$1,$8,$9,$2,$3,0*%
G04 Aperture macros list end*
%ADD10RoundRect,0.218750X-0.218750X-0.256250X0.218750X-0.256250X0.218750X0.256250X-0.218750X0.256250X0*%
%ADD11RoundRect,0.200000X-0.200000X-0.275000X0.200000X-0.275000X0.200000X0.275000X-0.200000X0.275000X0*%
%ADD12RoundRect,0.225000X-0.225000X-0.250000X0.225000X-0.250000X0.225000X0.250000X-0.225000X0.250000X0*%
%ADD13RoundRect,0.250000X-1.050000X-0.550000X1.050000X-0.550000X1.050000X0.550000X-1.050000X0.550000X0*%
%ADD14RoundRect,0.225000X0.225000X0.250000X-0.225000X0.250000X-0.225000X-0.250000X0.225000X-0.250000X0*%
%ADD15RoundRect,0.200000X-0.275000X0.200000X-0.275000X-0.200000X0.275000X-0.200000X0.275000X0.200000X0*%
%ADD16RoundRect,0.075000X-0.662500X-0.075000X0.662500X-0.075000X0.662500X0.075000X-0.662500X0.075000X0*%
%ADD17RoundRect,0.075000X-0.075000X-0.662500X0.075000X-0.662500X0.075000X0.662500X-0.075000X0.662500X0*%
%ADD18RoundRect,0.087500X0.225000X0.087500X-0.225000X0.087500X-0.225000X-0.087500X0.225000X-0.087500X0*%
%ADD19RoundRect,0.087500X0.087500X0.225000X-0.087500X0.225000X-0.087500X-0.225000X0.087500X-0.225000X0*%
%ADD20RoundRect,0.175000X-0.325000X0.175000X-0.325000X-0.175000X0.325000X-0.175000X0.325000X0.175000X0*%
%ADD21RoundRect,0.150000X-0.150000X0.200000X-0.150000X-0.200000X0.150000X-0.200000X0.150000X0.200000X0*%
%ADD22RoundRect,0.250000X0.750000X-0.840000X0.750000X0.840000X-0.750000X0.840000X-0.750000X-0.840000X0*%
%ADD23RoundRect,0.150000X0.425000X-0.150000X0.425000X0.150000X-0.425000X0.150000X-0.425000X-0.150000X0*%
%ADD24RoundRect,0.075000X0.500000X-0.075000X0.500000X0.075000X-0.500000X0.075000X-0.500000X-0.075000X0*%
%ADD25C,0.650000*%
%ADD26RoundRect,0.218750X-0.256250X0.218750X-0.256250X-0.218750X0.256250X-0.218750X0.256250X0.218750X0*%
%ADD27RoundRect,0.140000X-0.170000X0.140000X-0.170000X-0.140000X0.170000X-0.140000X0.170000X0.140000X0*%
%ADD28R,1.700000X1.700000*%
%ADD29O,1.700000X1.700000*%
%ADD30R,0.450000X0.300000*%
%ADD31R,0.300000X0.450000*%
%ADD32RoundRect,0.225000X-0.250000X0.225000X-0.250000X-0.225000X0.250000X-0.225000X0.250000X0.225000X0*%
%ADD33RoundRect,0.218750X0.256250X-0.218750X0.256250X0.218750X-0.256250X0.218750X-0.256250X-0.218750X0*%
%ADD34R,1.900000X0.400000*%
%ADD35RoundRect,0.200000X0.200000X0.275000X-0.200000X0.275000X-0.200000X-0.275000X0.200000X-0.275000X0*%
%ADD36C,2.000000*%
G04 APERTURE END LIST*
D10*
%TO.C,D5*%
X87425000Y-86250000D03*
X89000000Y-86250000D03*
%TD*%
D11*
%TO.C,R1*%
X90562500Y-86250000D03*
X92212500Y-86250000D03*
%TD*%
%TO.C,R7*%
X126950000Y-82500000D03*
X128600000Y-82500000D03*
%TD*%
D12*
%TO.C,C20*%
X127000000Y-75500000D03*
X128550000Y-75500000D03*
%TD*%
%TO.C,C4*%
X125725000Y-66750000D03*
X127275000Y-66750000D03*
%TD*%
D13*
%TO.C,C2*%
X128200000Y-38250000D03*
X131800000Y-38250000D03*
%TD*%
D11*
%TO.C,R14*%
X139920000Y-69500000D03*
X141570000Y-69500000D03*
%TD*%
D14*
%TO.C,C18*%
X112525000Y-82500000D03*
X110975000Y-82500000D03*
%TD*%
D11*
%TO.C,R8*%
X126950000Y-80750000D03*
X128600000Y-80750000D03*
%TD*%
D15*
%TO.C,R5*%
X118000000Y-86212500D03*
X118000000Y-87862500D03*
%TD*%
D11*
%TO.C,R13*%
X139920000Y-85250000D03*
X141570000Y-85250000D03*
%TD*%
D14*
%TO.C,C21*%
X112500000Y-86000000D03*
X110950000Y-86000000D03*
%TD*%
D16*
%TO.C,U2*%
X115225000Y-76000000D03*
X115225000Y-76500000D03*
X115225000Y-77000000D03*
X115225000Y-77500000D03*
X115225000Y-78000000D03*
X115225000Y-78500000D03*
X115225000Y-79000000D03*
X115225000Y-79500000D03*
X115225000Y-80000000D03*
X115225000Y-80500000D03*
X115225000Y-81000000D03*
X115225000Y-81500000D03*
D17*
X116637500Y-82912500D03*
X117137500Y-82912500D03*
X117637500Y-82912500D03*
X118137500Y-82912500D03*
X118637500Y-82912500D03*
X119137500Y-82912500D03*
X119637500Y-82912500D03*
X120137500Y-82912500D03*
X120637500Y-82912500D03*
X121137500Y-82912500D03*
X121637500Y-82912500D03*
X122137500Y-82912500D03*
D16*
X123550000Y-81500000D03*
X123550000Y-81000000D03*
X123550000Y-80500000D03*
X123550000Y-80000000D03*
X123550000Y-79500000D03*
X123550000Y-79000000D03*
X123550000Y-78500000D03*
X123550000Y-78000000D03*
X123550000Y-77500000D03*
X123550000Y-77000000D03*
X123550000Y-76500000D03*
X123550000Y-76000000D03*
D17*
X122137500Y-74587500D03*
X121637500Y-74587500D03*
X121137500Y-74587500D03*
X120637500Y-74587500D03*
X120137500Y-74587500D03*
X119637500Y-74587500D03*
X119137500Y-74587500D03*
X118637500Y-74587500D03*
X118137500Y-74587500D03*
X117637500Y-74587500D03*
X117137500Y-74587500D03*
X116637500Y-74587500D03*
%TD*%
D14*
%TO.C,C15*%
X112500000Y-74250000D03*
X110950000Y-74250000D03*
%TD*%
D18*
%TO.C,U1*%
X124375000Y-70000000D03*
X124375000Y-69500000D03*
X124375000Y-69000000D03*
X124375000Y-68500000D03*
D19*
X123712500Y-68337500D03*
X123212500Y-68337500D03*
X122712500Y-68337500D03*
D18*
X122050000Y-68500000D03*
X122050000Y-69000000D03*
X122050000Y-69500000D03*
X122050000Y-70000000D03*
D19*
X122712500Y-70162500D03*
X123212500Y-70162500D03*
X123712500Y-70162500D03*
%TD*%
D20*
%TO.C,D6*%
X136945000Y-76750000D03*
D21*
X135245000Y-76750000D03*
X135245000Y-78750000D03*
X137145000Y-78750000D03*
%TD*%
D22*
%TO.C,J1*%
X144750000Y-72250000D03*
X140820000Y-72250000D03*
X144750000Y-82470000D03*
X140820000Y-82470000D03*
D23*
X140245000Y-80560000D03*
X140245000Y-79760000D03*
D24*
X140245000Y-79110000D03*
X140245000Y-78110000D03*
X140245000Y-76610000D03*
X140245000Y-75610000D03*
D23*
X140245000Y-74960000D03*
X140245000Y-74160000D03*
X140245000Y-74160000D03*
X140245000Y-74960000D03*
D24*
X140245000Y-76110000D03*
X140245000Y-77110000D03*
X140245000Y-77610000D03*
X140245000Y-78610000D03*
D23*
X140245000Y-79760000D03*
X140245000Y-80560000D03*
D25*
X141320000Y-74470000D03*
X141320000Y-80250000D03*
%TD*%
D12*
%TO.C,C13*%
X126975000Y-79000000D03*
X128525000Y-79000000D03*
%TD*%
D26*
%TO.C,D3*%
X121500000Y-86250000D03*
X121500000Y-87825000D03*
%TD*%
D11*
%TO.C,R3*%
X126850000Y-72000000D03*
X128500000Y-72000000D03*
%TD*%
D27*
%TO.C,C1*%
X113000000Y-68040000D03*
X113000000Y-69000000D03*
%TD*%
D12*
%TO.C,C3*%
X118700000Y-68750000D03*
X120250000Y-68750000D03*
%TD*%
D11*
%TO.C,R4*%
X126925000Y-70250000D03*
X128575000Y-70250000D03*
%TD*%
D28*
%TO.C,J6*%
X107500000Y-81830000D03*
D29*
X107500000Y-79290000D03*
X107500000Y-76750000D03*
%TD*%
D14*
%TO.C,C17*%
X112550000Y-80500000D03*
X111000000Y-80500000D03*
%TD*%
D30*
%TO.C,U3*%
X117250000Y-69750000D03*
X117250000Y-69250000D03*
X117250000Y-68750000D03*
X117250000Y-68250000D03*
D31*
X116725000Y-67725000D03*
X116225000Y-67725000D03*
X115725000Y-67725000D03*
X115225000Y-67725000D03*
D30*
X114700000Y-68250000D03*
X114700000Y-68750000D03*
X114700000Y-69250000D03*
X114700000Y-69750000D03*
D31*
X115225000Y-70275000D03*
X115725000Y-70275000D03*
X116225000Y-70275000D03*
X116725000Y-70275000D03*
%TD*%
D32*
%TO.C,C14*%
X123250000Y-86225000D03*
X123250000Y-87775000D03*
%TD*%
D12*
%TO.C,C19*%
X127000000Y-77250000D03*
X128550000Y-77250000D03*
%TD*%
D14*
%TO.C,C16*%
X112550000Y-72500000D03*
X111000000Y-72500000D03*
%TD*%
D15*
%TO.C,R6*%
X119750000Y-86212500D03*
X119750000Y-87862500D03*
%TD*%
D33*
%TO.C,D2*%
X126750000Y-87825000D03*
X126750000Y-86250000D03*
%TD*%
D34*
%TO.C,Y2*%
X111550000Y-76300000D03*
X111550000Y-77500000D03*
X111550000Y-78700000D03*
%TD*%
D33*
%TO.C,D1*%
X128500000Y-87825000D03*
X128500000Y-86250000D03*
%TD*%
D12*
%TO.C,C5*%
X122225000Y-66750000D03*
X123775000Y-66750000D03*
%TD*%
D35*
%TO.C,R2*%
X112575000Y-84250000D03*
X110925000Y-84250000D03*
%TD*%
D26*
%TO.C,D4*%
X125000000Y-86250000D03*
X125000000Y-87825000D03*
%TD*%
D36*
%TO.C,SW1*%
X209310000Y-40250000D03*
X215810000Y-40250000D03*
X209310000Y-44750000D03*
X215810000Y-44750000D03*
%TD*%
D28*
%TO.C,J5*%
X136750000Y-92000000D03*
D29*
X139290000Y-92000000D03*
X141830000Y-92000000D03*
X144370000Y-92000000D03*
%TD*%
D28*
%TO.C,J3*%
X109720000Y-92000000D03*
D29*
X112260000Y-92000000D03*
X114800000Y-92000000D03*
X117340000Y-92000000D03*
X119880000Y-92000000D03*
X122420000Y-92000000D03*
X124960000Y-92000000D03*
X127500000Y-92000000D03*
X130040000Y-92000000D03*
X132580000Y-92000000D03*
%TD*%
%TO.C,J4*%
X109800000Y-64000000D03*
X112340000Y-64000000D03*
X114880000Y-64000000D03*
X117420000Y-64000000D03*
X119960000Y-64000000D03*
X122500000Y-64000000D03*
X125040000Y-64000000D03*
X127580000Y-64000000D03*
X130120000Y-64000000D03*
D28*
X132660000Y-64000000D03*
%TD*%
%TO.C,J2*%
X144250000Y-64500000D03*
D29*
X141710000Y-64500000D03*
X139170000Y-64500000D03*
X136630000Y-64500000D03*
%TD*%
M02*
